<?xml version="1.0" encoding="utf-8"?>
<!-- Generator: Adobe Illustrator 16.0.4, SVG Export Plug-In . SVG Version: 6.00 Build 0)  -->
<!DOCTYPE svg PUBLIC "-//W3C//DTD SVG 1.1//EN" "http://www.w3.org/Graphics/SVG/1.1/DTD/svg11.dtd">
<svg version="1.1" id="Layer_1" xmlns="http://www.w3.org/2000/svg" xmlns:xlink="http://www.w3.org/1999/xlink" x="0px" y="0px"
	 width="80px" height="80px" viewBox="0 0 80 80" enable-background="new 0 0 80 80" xml:space="preserve">
<g>
	<rect x="1" fill="#F2F2F2" width="79" height="79"/>
	<path fill="#666666" d="M79,1v78H1V1H79 M80,0H0v80h80V0L80,0z"/>
</g>
<g>
	<g>
		<path fill="none" stroke="#B3B3B3" stroke-width="2" stroke-miterlimit="10" d="M61.074,37.093c0,3.193-0.584,4.525-1.641,6.232
			c-1.057,1.608-2.586,3.593-4.475,5.812c-3.777,4.562-8.998,9.443-14.764,8.834s-10.985-0.406-14.763-3.41
			c-1.89-1.542-3.418-4.061-4.475-7.447c-1.057-3.289-1.641-7.448-1.641-10.021c0-3.193,0.584-4.525,1.641-6.232
			c1.057-1.609,2.585-3.592,4.475-5.812c3.777-4.562,8.998-9.443,14.763-8.833c5.766,0.609,10.984,0.405,14.764,3.41
			c1.889,1.542,3.418,4.06,4.475,7.446C60.49,30.362,61.074,34.521,61.074,37.093z"/>
		<path fill="none" stroke="#E6E6E6" stroke-width="2" stroke-miterlimit="10" d="M25.434,51.856
			c-2.258-2.258-2.788-3.613-3.248-5.566c-0.391-1.885-0.711-4.368-0.945-7.274c-0.555-5.897-0.315-13.039,4.193-16.686
			c4.507-3.645,8.055-7.48,12.85-8.027c2.427-0.245,5.286,0.454,8.431,2.102c3.072,1.58,6.428,4.107,8.246,5.926
			c2.258,2.259,2.787,3.614,3.248,5.568c0.391,1.885,0.711,4.367,0.943,7.273c0.557,5.897,0.314,13.04-4.191,16.687
			c-4.508,3.646-8.057,7.479-12.852,8.026c-2.426,0.246-5.286-0.453-8.43-2.103C30.606,56.202,27.252,53.675,25.434,51.856z"/>
		<path fill="none" stroke="#999999" stroke-width="2" stroke-miterlimit="10" d="M54.08,51.636
			c-2.258,2.258-3.613,2.788-5.566,3.248c-1.885,0.391-4.369,0.711-7.275,0.945c-5.896,0.555-13.038,0.314-16.685-4.193
			c-3.645-4.507-7.48-8.055-8.027-12.85c-0.245-2.427,0.454-5.289,2.102-8.43c1.58-3.073,4.107-6.428,5.926-8.246
			c2.259-2.258,3.614-2.788,5.568-3.248c1.886-0.391,4.368-0.711,7.272-0.945c5.898-0.555,13.041-0.315,16.686,4.193
			c3.646,4.508,7.48,8.055,8.027,12.85c0.246,2.427-0.453,5.287-2.102,8.43C58.428,46.464,55.898,49.817,54.08,51.636z"/>
		<path fill="none" stroke="#666666" stroke-width="2" stroke-miterlimit="10" d="M56.719,22.989
			c2.258,2.258,2.787,3.613,3.248,5.568c0.391,1.885,0.711,4.367,0.945,7.273c0.555,5.898,0.314,13.039-4.193,16.686
			c-4.508,3.646-8.055,7.479-12.852,8.027c-2.426,0.245-5.286-0.454-8.428-2.103c-3.074-1.58-6.428-4.106-8.247-5.926
			c-2.258-2.259-2.787-3.613-3.247-5.568c-0.391-1.885-0.712-4.367-0.946-7.272c-0.555-5.898-0.315-13.039,4.193-16.686
			c4.508-3.646,8.055-7.48,12.851-8.027c2.426-0.246,5.287,0.453,8.43,2.102C51.547,18.643,54.9,21.171,56.719,22.989z"/>
	</g>
	<g>
		
			<rect x="28.852" y="37.591" transform="matrix(0.9283 -0.3719 0.3719 0.9283 -13.9321 16.4138)" fill="#CECECE" width="13.474" height="13.474"/>
		
			<text transform="matrix(0.9283 -0.3719 0.3719 0.9283 33.5645 48.7188)" fill="#5D5D5C" font-family="'MyriadPro-Regular'" font-size="12">+</text>
	</g>
	<g>
		
			<rect x="46.169" y="27.074" transform="matrix(0.9659 0.259 -0.259 0.9659 9.9194 -12.0554)" fill="#CECECE" width="9.093" height="9.095"/>
		
			<text transform="matrix(0.9659 0.259 -0.259 0.9659 47.8457 33.1738)" fill="#5D5D5C" font-family="'MyriadPro-Regular'" font-size="8.0993">+</text>
	</g>
	<g>
		
			<rect x="34.646" y="27.205" transform="matrix(0.9186 -0.3952 0.3952 0.9186 -8.8087 17.241)" fill="#CECECE" width="5.589" height="5.589"/>
		
			<text transform="matrix(0.9186 -0.3952 0.3952 0.9186 36.646 31.8418)" fill="#5D5D5C" font-family="'MyriadPro-Regular'" font-size="4.9775">+</text>
	</g>
</g>
<path opacity="0.5" fill="#FFFFFF" enable-background="new    " d="M0.25,1c0,0,30.461,69.25,69.5,69.25
	c10.25,0,8.938-6.938,9.562-8.438C79.936,60.312,79.375,80,79.375,80H0L0.25,1z"/>
</svg>
