<?xml version="1.0" encoding="utf-8"?>
<!-- Generator: Adobe Illustrator 16.0.4, SVG Export Plug-In . SVG Version: 6.00 Build 0)  -->
<!DOCTYPE svg PUBLIC "-//W3C//DTD SVG 1.1//EN" "http://www.w3.org/Graphics/SVG/1.1/DTD/svg11.dtd">
<svg version="1.1" id="Layer_1" xmlns="http://www.w3.org/2000/svg" xmlns:xlink="http://www.w3.org/1999/xlink" x="0px" y="0px"
	 width="80px" height="80px" viewBox="0 0 80 80" enable-background="new 0 0 80 80" xml:space="preserve">
<g>
	<rect x="1" fill="#F2F2F2" width="79" height="79"/>
	<path fill="#666666" d="M79,1v78H1V1H79 M80,0H0v80h80V0L80,0z"/>
</g>
<path opacity="0.5" fill="#FFFFFF" enable-background="new    " d="M0.25,1c0,0,30.461,69.25,69.5,69.25
	c10.25,0,8.938-6.938,9.562-8.438C79.936,60.312,79.375,80,79.375,80H0L0.25,1z"/>
<g>
	<rect x="20.297" y="20.283" fill="#FFFFFF" width="40.405" height="39.434"/>
	<rect x="25.153" y="23.78" fill="#2B7771" width="31.081" height="11.461"/>
	<line fill="#1D1D1B" stroke="#1D1D1B" stroke-miterlimit="10" x1="25.153" y1="38.548" x2="40.5" y2="38.548"/>
	<line fill="#1D1D1B" stroke="#1D1D1B" stroke-miterlimit="10" x1="25.153" y1="44.205" x2="40.5" y2="44.205"/>
	<line fill="#1D1D1B" stroke="#1D1D1B" stroke-miterlimit="10" x1="25.153" y1="41.256" x2="40.5" y2="41.256"/>
	<line fill="#1D1D1B" stroke="#1D1D1B" stroke-miterlimit="10" x1="25.153" y1="50.004" x2="40.5" y2="50.004"/>
	<line fill="#1D1D1B" stroke="#1D1D1B" stroke-miterlimit="10" x1="25.153" y1="47.055" x2="40.5" y2="47.055"/>
	<rect x="42.83" y="38.048" fill="#FECD57" width="12.433" height="12.432"/>
</g>
</svg>
