<?xml version="1.0" encoding="utf-8"?>
<!-- Generator: Adobe Illustrator 16.0.4, SVG Export Plug-In . SVG Version: 6.00 Build 0)  -->
<!DOCTYPE svg PUBLIC "-//W3C//DTD SVG 1.1//EN" "http://www.w3.org/Graphics/SVG/1.1/DTD/svg11.dtd">
<svg version="1.1" id="Layer_1" xmlns="http://www.w3.org/2000/svg" xmlns:xlink="http://www.w3.org/1999/xlink" x="0px" y="0px"
	 width="80px" height="80px" viewBox="0 0 80 80" enable-background="new 0 0 80 80" xml:space="preserve">
<g>
	<rect x="1" fill="#F2F2F2" width="79" height="79"/>
	<path fill="#666666" d="M79,1v78H1V1H79 M80,0H0v80h80V0L80,0z"/>
</g>
<path fill="#CCCCCC" d="M61.642,17.725c-0.155-3.728-3.994,4.346-7.648,3.331c-0.479-0.133-1.081-0.384-1.837-0.704
	c0,0-0.854-0.897-1.122-1.316c-2.05-3.191,4.529-9.245,0.922-8.291s-8.449,1.959-7.731,8.791
	c0.583,5.557-17.181,31.903-22.901,33.418c-6.641,1.758-5.859,6.641-5.469,10.352c0.391,3.71,3.711-4.59,7.422-3.809
	c0.05,0.011,0.241-0.01,0.264,0.033c1.843,3.314-5.105,8.938-1.446,8.216c3.661-0.724,8.557-1.42,8.274-8.283
	c-0.244-5.913,19.678-30.668,25.16-31.753C62.267,26.376,61.796,21.454,61.642,17.725z"/>
<path fill="#808080" d="M61.642,17.725c-0.046-1.092-0.409-1.167-0.989-0.759c0.16,3.697,0.472,8.438-6.124,9.743
	c-5.481,1.085-25.403,25.84-25.16,31.753c0.279,6.779-4.492,7.541-8.136,8.256c-0.394,0.818-0.334,1.264,0.862,1.027
	c3.661-0.724,8.557-1.42,8.274-8.283c-0.244-5.913,19.678-30.668,25.16-31.753C62.267,26.376,61.796,21.454,61.642,17.725z"/>
<path opacity="0.5" fill="#FFFFFF" d="M0.25,1c0,0,30.461,69.25,69.5,69.25c10.25,0,8.938-6.938,9.562-8.438S79.375,80,79.375,80H0
	L0.25,1z"/>
</svg>
